<svg xmlns="http://www.w3.org/2000/svg" viewBox="0 0 460 248">
<title>水そうの水位のうつりかわり（y＝3x と y＝3x＋2 の対比）</title>
<desc>【この図の意図】主概念1の場面の可視化。座標平面のグラフにはしない（L3先取り回避）。【主要な数値・設定】毎分3L・はじめ0Lと2L・x＝0,1,2の水位(0,3,6 / 2,5,8)は式から計算。【AIに同じ種類の図を描かせるときの説明文】「水そうの水位のうつりかわり（y＝3x と y＝3x＋2 の対比）。主概念1の場面の可視化。座標平面のグラフにはしない（L3先取り回避）。数値・設定: 毎分3L・はじめ0Lと2L・x＝0,1,2の水位(0,3,6 / 2,5,8)は式から計算。白黒印刷向けのシンプルな教材図（SVG）としてかいて。」——この説明文を生成AIに渡せば同型の図を描かせられる。数値を変えれば類題用の図も作れる。</desc>
<!-- L01_fig1_tank_water_level.svg | 水そうの水位のうつりかわり（y＝3x と y＝3x＋2 の対比） -->
<!-- generated by assets_provenance/generate_figures.py on 2026-08-29 (docs/SPEC_figures.md準拠・SVG直接編集禁止/スクリプト改修で再生成) -->
<rect x="0" y="0" width="460" height="248" fill="#fff"/>
<defs><pattern id="h45" width="6" height="6" patternUnits="userSpaceOnUse" patternTransform="rotate(45)"><line x1="0" y1="0" x2="0" y2="6" stroke="#555" stroke-width="1.1"/></pattern></defs><text x="125.0" y="26.0" font-size="13" text-anchor="middle" font-weight="bold">① 空の水そうから（y＝3x）</text>
<polyline points="48.0,64.0 48.0,144.0 92.0,144.0 92.0,64.0" fill="none" stroke="#000" stroke-width="1.6"/>
<text x="70.0" y="56.0" font-size="13" text-anchor="middle" font-weight="bold">0L</text>
<text x="70.0" y="160.0" font-size="11" text-anchor="middle">0分</text>
<rect x="108.0" y="120.0" width="44.0" height="24.0" fill="#ddd" stroke="none"/>
<line x1="108.0" y1="120.0" x2="152.0" y2="120.0" stroke="#000" stroke-width="1.6"/>
<polyline points="108.0,64.0 108.0,144.0 152.0,144.0 152.0,64.0" fill="none" stroke="#000" stroke-width="1.6"/>
<text x="130.0" y="56.0" font-size="13" text-anchor="middle" font-weight="bold">3L</text>
<text x="130.0" y="160.0" font-size="11" text-anchor="middle">1分</text>
<rect x="168.0" y="96.0" width="44.0" height="48.0" fill="#ddd" stroke="none"/>
<line x1="168.0" y1="96.0" x2="212.0" y2="96.0" stroke="#000" stroke-width="1.6"/>
<polyline points="168.0,64.0 168.0,144.0 212.0,144.0 212.0,64.0" fill="none" stroke="#000" stroke-width="1.6"/>
<text x="190.0" y="56.0" font-size="13" text-anchor="middle" font-weight="bold">6L</text>
<text x="190.0" y="160.0" font-size="11" text-anchor="middle">2分</text>
<text x="345.0" y="26.0" font-size="13" text-anchor="middle" font-weight="bold">② はじめ2L入り（y＝3x＋2）</text>
<rect x="268.0" y="128.0" width="44.0" height="16.0" fill="#ddd" stroke="none"/>
<rect x="268.0" y="128.0" width="44.0" height="16.0" fill="url(#h45)" stroke="none"/>
<line x1="268.0" y1="128.0" x2="312.0" y2="128.0" stroke="#000" stroke-width="1.6"/>
<polyline points="268.0,64.0 268.0,144.0 312.0,144.0 312.0,64.0" fill="none" stroke="#000" stroke-width="1.6"/>
<text x="290.0" y="56.0" font-size="13" text-anchor="middle" font-weight="bold">2L</text>
<text x="290.0" y="160.0" font-size="11" text-anchor="middle">0分</text>
<rect x="328.0" y="104.0" width="44.0" height="40.0" fill="#ddd" stroke="none"/>
<rect x="328.0" y="128.0" width="44.0" height="16.0" fill="url(#h45)" stroke="none"/>
<line x1="328.0" y1="104.0" x2="372.0" y2="104.0" stroke="#000" stroke-width="1.6"/>
<polyline points="328.0,64.0 328.0,144.0 372.0,144.0 372.0,64.0" fill="none" stroke="#000" stroke-width="1.6"/>
<text x="350.0" y="56.0" font-size="13" text-anchor="middle" font-weight="bold">5L</text>
<text x="350.0" y="160.0" font-size="11" text-anchor="middle">1分</text>
<rect x="388.0" y="80.0" width="44.0" height="64.0" fill="#ddd" stroke="none"/>
<rect x="388.0" y="128.0" width="44.0" height="16.0" fill="url(#h45)" stroke="none"/>
<line x1="388.0" y1="80.0" x2="432.0" y2="80.0" stroke="#000" stroke-width="1.6"/>
<polyline points="388.0,64.0 388.0,144.0 432.0,144.0 432.0,64.0" fill="none" stroke="#000" stroke-width="1.6"/>
<text x="410.0" y="56.0" font-size="13" text-anchor="middle" font-weight="bold">8L</text>
<text x="410.0" y="160.0" font-size="11" text-anchor="middle">2分</text>
<text x="125.0" y="182.0" font-size="10.5" text-anchor="middle">0Lからスタート</text>
<text x="345.0" y="182.0" font-size="10.5" text-anchor="middle">斜線＝はじめから入っていた2L</text>
<text x="230.0" y="210.0" font-size="12" text-anchor="middle">どちらも1分ごとに3Lずつ増える——ちがいは「はじめに入っていた量」だけ</text>
<text x="230.0" y="230.0" font-size="12" text-anchor="middle">（スタートのちがい2Lは、何分たっても2Lのまま）</text>
</svg>
