<svg xmlns="http://www.w3.org/2000/svg" viewBox="0 0 470 372">
<title>追いつきの2直線（y＝60x＋20 と y＝80x）</title>
<desc>【この図の意図】練習4の追加ヒントの可視化。交点は座標も数値目盛も書かない。【主要な数値・設定】分速60m＋20m先行・分速80m／交点はassertのみ・軸の数値目盛なし。【AIに同じ種類の図を描かせるときの説明文】「追いつきの2直線（y＝60x＋20 と y＝80x）。練習4の追加ヒントの可視化。交点は座標も数値目盛も書かない。数値・設定: 分速60m＋20m先行・分速80m／交点はassertのみ・軸の数値目盛なし。白黒印刷向けのシンプルな教材図（SVG）としてかいて。」——この説明文を生成AIに渡せば同型の図を描かせられる。数値を変えれば類題用の図も作れる。</desc>
<!-- L07_fig2_catchup_two_lines.svg | 追いつきの2直線（y＝60x＋20 と y＝80x） -->
<!-- generated by assets_provenance/generate_figures.py on 2026-08-29 (docs/SPEC_figures.md準拠・SVG直接編集禁止/スクリプト改修で再生成) -->
<rect x="0" y="0" width="470" height="372" fill="#fff"/>
<line x1="30.0" y1="287.0" x2="371.0" y2="287.0" stroke="#000" stroke-width="1.2"/>
<polygon points="378.0,287.0 371.0,290.1 371.0,283.9" fill="#000"/>
<line x1="56.0" y1="309.5" x2="56.0" y2="21.5" stroke="#000" stroke-width="1.2"/>
<polygon points="56.0,14.5 59.1,21.5 52.9,21.5" fill="#000"/>
<text x="382.0" y="291.0" font-size="12" text-anchor="start">x（分）</text>
<text x="49.0" y="14.5" font-size="12" text-anchor="end">y（m）</text>
<text x="50.0" y="300.0" font-size="11" text-anchor="end">O</text>
<line x1="56.0" y1="257.0" x2="335.5" y2="63.5" stroke="#000" stroke-width="1.6"/>
<line x1="56.0" y1="287.0" x2="329.0" y2="35.0" stroke="#000" stroke-width="1.6"/>
<circle cx="56.0" cy="257.0" r="3.2" fill="#000"/>
<text x="95.0" y="277.2" font-size="10.5" text-anchor="start">スタートでAが20m前</text>
<circle cx="186.0" cy="167.0" r="4.5" fill="#fff" stroke="#000" stroke-width="1.6"/>
<text x="201.6" y="221.8" font-size="11" text-anchor="start" font-weight="bold">ここで追いつく</text>
<text x="201.6" y="242.5" font-size="10" text-anchor="start">（2つのyが等しくなる点）</text>
<line x1="218.5" y1="204.5" x2="194.7" y2="184.1" stroke="#000" stroke-width="1.1" stroke-dasharray="6 4"/>
<polygon points="190.5,180.5 196.3,182.2 193.1,186.0" fill="#000"/>
<text x="332.9" y="51.0" font-size="11.5" text-anchor="start" font-weight="bold">Bさん y＝80x</text>
<text x="339.4" y="94.2" font-size="11.5" text-anchor="start" font-weight="bold">Aさん y＝60x＋20</text>
<text x="235.0" y="336.0" font-size="12" text-anchor="middle">Aさん（先に20m）とBさん（速い）の2直線は、1点で交わる</text>
<text x="235.0" y="356.0" font-size="11" text-anchor="middle">（交わるところが「追いつく」とき——いつかは、式かグラフで求めよう）</text>
</svg>
