<svg xmlns="http://www.w3.org/2000/svg" viewBox="0 0 640 300">
<title>係数の組の探索——xの項で照合</title>
<desc>【この図の意図】x²の係数と定数項の分解から候補の組を作り、展開したときのxの項で照合して採否を決める流れを1枚で見せる（本文§1の候補表と同一数値のみ）。【主要な数値・設定】3x²＋7x＋2／候補 (x＋1)(3x＋2)→5x ✗・(x＋2)(3x＋1)→7x ✓。【AIに同じ種類の図を描かせるときの説明文】「係数の組の探索——xの項で照合。x²の係数と定数項の分解から候補の組を作り、展開したときのxの項で照合して採否を決める流れを1枚で見せる（本文§1の候補表と同一数値のみ）。数値・設定: 3x²＋7x＋2／候補 (x＋1)(3x＋2)→5x ✗・(x＋2)(3x＋1)→7x ✓。白黒印刷向けのシンプルな教材図（SVG）としてかいて。」——この説明文を生成AIに渡せば同型の図を描かせられる。数値を変えれば類題用の図も作れる。</desc>
<!-- L04_fig1_coefficient_pair_search.svg | 係数の組の探索——xの項で照合 -->
<!-- generated by assets_provenance/generate_figures.py on 2026-09-02 (docs/SPEC_figures.md・標準形§12準拠・SVG直接編集禁止/スクリプト改修で再生成) -->
<rect x="0" y="0" width="640" height="300" fill="#fff"/>
<text x="320.0" y="32.0" font-size="15" text-anchor="middle" font-weight="bold">3x²＋7x＋2</text>
<line x1="250.0" y1="40.0" x2="155.3" y2="62.7" stroke="#000" stroke-width="1.1"/>
<polygon points="150.0,64.0 154.8,60.3 155.9,65.1" fill="#000"/>
<line x1="390.0" y1="40.0" x2="474.7" y2="62.6" stroke="#000" stroke-width="1.1"/>
<polygon points="480.0,64.0 474.0,65.0 475.3,60.2" fill="#000"/>
<text x="150.0" y="84.0" font-size="11.5" text-anchor="middle">x²の係数 3＝1×3</text>
<text x="480.0" y="84.0" font-size="11.5" text-anchor="middle">定数項 2＝1×2 または 2×1</text>
<rect x="40.0" y="108.0" width="190.0" height="40.0" fill="none" stroke="#000" stroke-width="1.4"/>
<text x="135.0" y="132.0" font-size="13" text-anchor="middle">(x＋1)(3x＋2)</text>
<line x1="234.0" y1="128.0" x2="289.0" y2="128.0" stroke="#000" stroke-width="1.4"/>
<polygon points="296.0,128.0 289.0,131.2 289.0,124.8" fill="#000"/>
<text x="352.0" y="132.0" font-size="13" text-anchor="middle">xの項 5x</text>
<text x="475.0" y="132.0" font-size="13" text-anchor="middle">✗ 7x と合わない</text>
<rect x="40.0" y="188.0" width="190.0" height="40.0" fill="none" stroke="#000" stroke-width="1.4"/>
<text x="135.0" y="212.0" font-size="13" text-anchor="middle">(x＋2)(3x＋1)</text>
<line x1="234.0" y1="208.0" x2="289.0" y2="208.0" stroke="#000" stroke-width="1.4"/>
<polygon points="296.0,208.0 289.0,211.2 289.0,204.8" fill="#000"/>
<text x="352.0" y="212.0" font-size="13" text-anchor="middle">xの項 7x</text>
<text x="492.0" y="212.0" font-size="13" text-anchor="middle" font-weight="bold">✓ 7x と一致——採用</text>
<text x="320.0" y="274.0" font-size="13.5" text-anchor="middle" font-weight="bold">3x²＋7x＋2＝(x＋2)(3x＋1)</text>
</svg>
