<svg xmlns="http://www.w3.org/2000/svg" viewBox="0 0 480 262" role="img">
<title>A班とB班の箱ひげ図の並列——外れ値を●で別描き</title>
<desc>【この図の意図】同じ数直線の上にA班・B班（各11人の図書室利用回数）の箱ひげ図を並べ、四分位範囲の1.5倍より外の値（A班の18）を外れ値として●で別に描く。ひげは外れ値を除いた最小値・最大値まで（A班は10まで）。箱が短いA班の方が●まで含めた広がりは大きい対比で「範囲と四分位範囲」「箱の長さとデータの個数」の混同を防ぐ。五数の数値ラベルは打たない（読み取りは練習）。【主要な数値・設定】A班=[3, 5, 6, 6, 7, 8, 8, 8, 9, 10, 18]（五数3/6/8/9/18・外れ値18・ひげ3〜10）／B班=[2, 4, 5, 6, 8, 8, 9, 10, 11, 12, 13]（五数2/5/8/11/13・外れ値なし・ひげ2〜13）／横軸0〜20。【本文の alt】A班とB班の箱ひげ図の並列——同じ数直線上に2本の箱ひげ図を並べ、A班の18を外れ値として●で別に描き、A班のひげは10まで。箱はA班の方が短いのに、●まで含めた広がりはA班の方が大きい。【AIに同じ種類の図を描かせるときの説明文】「A班とB班の箱ひげ図の並列——外れ値を●で別描き。同じ数直線の上にA班・B班（各11人の図書室利用回数）の箱ひげ図を並べ、四分位範囲の1.5倍より外の値（A班の18）を外れ値として●で別に描く。ひげは外れ値を除いた最小値・最大値まで（A班は10まで）。箱が短いA班の方が●まで含めた広がりは大きい対比で「範囲と四分位範囲」「箱の長さとデータの個数」の混同を防ぐ。五数の数値ラベルは打たない（読み取りは練習）。数値・設定: A班=[3, 5, 6, 6, 7, 8, 8, 8, 9, 10, 18]（五数3/6/8/9/18・外れ値18・ひげ3〜10）／B班=[2, 4, 5, 6, 8, 8, 9, 10, 11, 12, 13]（五数2/5/8/11/13・外れ値なし・ひげ2〜13）／横軸0〜20。白黒印刷向けのシンプルな教材図（SVG）としてかいて。」——この説明文を生成AIに渡せば同型の図を描かせられる。数値を変えれば類題用の図も作れる。</desc>
<!-- L01_fig1_boxplots_outlier.svg | A班とB班の箱ひげ図の並列——外れ値を●で別描き -->
<!-- generated by assets_provenance/generate_figures.py on 2026-10-04 (docs/SPEC_figures.md準拠・SVG直接編集禁止/スクリプト改修で再生成) -->
<rect x="0" y="0" width="480" height="262" fill="#fff"/>
<line x1="55.0" y1="196.0" x2="445.0" y2="196.0" stroke="#000" stroke-width="1.2"/>
<line x1="55.0" y1="190.0" x2="55.0" y2="202.0" stroke="#000" stroke-width="0.9"/>
<line x1="74.5" y1="192.5" x2="74.5" y2="199.5" stroke="#000" stroke-width="0.9"/>
<line x1="94.0" y1="192.5" x2="94.0" y2="199.5" stroke="#000" stroke-width="0.9"/>
<line x1="113.5" y1="192.5" x2="113.5" y2="199.5" stroke="#000" stroke-width="0.9"/>
<line x1="133.0" y1="192.5" x2="133.0" y2="199.5" stroke="#000" stroke-width="0.9"/>
<line x1="152.5" y1="190.0" x2="152.5" y2="202.0" stroke="#000" stroke-width="0.9"/>
<line x1="172.0" y1="192.5" x2="172.0" y2="199.5" stroke="#000" stroke-width="0.9"/>
<line x1="191.5" y1="192.5" x2="191.5" y2="199.5" stroke="#000" stroke-width="0.9"/>
<line x1="211.0" y1="192.5" x2="211.0" y2="199.5" stroke="#000" stroke-width="0.9"/>
<line x1="230.5" y1="192.5" x2="230.5" y2="199.5" stroke="#000" stroke-width="0.9"/>
<line x1="250.0" y1="190.0" x2="250.0" y2="202.0" stroke="#000" stroke-width="0.9"/>
<line x1="269.5" y1="192.5" x2="269.5" y2="199.5" stroke="#000" stroke-width="0.9"/>
<line x1="289.0" y1="192.5" x2="289.0" y2="199.5" stroke="#000" stroke-width="0.9"/>
<line x1="308.5" y1="192.5" x2="308.5" y2="199.5" stroke="#000" stroke-width="0.9"/>
<line x1="328.0" y1="192.5" x2="328.0" y2="199.5" stroke="#000" stroke-width="0.9"/>
<line x1="347.5" y1="190.0" x2="347.5" y2="202.0" stroke="#000" stroke-width="0.9"/>
<line x1="367.0" y1="192.5" x2="367.0" y2="199.5" stroke="#000" stroke-width="0.9"/>
<line x1="386.5" y1="192.5" x2="386.5" y2="199.5" stroke="#000" stroke-width="0.9"/>
<line x1="406.0" y1="192.5" x2="406.0" y2="199.5" stroke="#000" stroke-width="0.9"/>
<line x1="425.5" y1="192.5" x2="425.5" y2="199.5" stroke="#000" stroke-width="0.9"/>
<line x1="445.0" y1="190.0" x2="445.0" y2="202.0" stroke="#000" stroke-width="0.9"/>
<text x="55.0" y="214.0" font-size="11" text-anchor="middle">0</text>
<text x="152.5" y="214.0" font-size="11" text-anchor="middle">5</text>
<text x="250.0" y="214.0" font-size="11" text-anchor="middle">10</text>
<text x="347.5" y="214.0" font-size="11" text-anchor="middle">15</text>
<text x="445.0" y="214.0" font-size="11" text-anchor="middle">20</text>
<line x1="113.5" y1="88.0" x2="172.0" y2="88.0" stroke="#000" stroke-width="1.6"/>
<line x1="230.5" y1="88.0" x2="250.0" y2="88.0" stroke="#000" stroke-width="1.6"/>
<line x1="113.5" y1="79.7" x2="113.5" y2="96.3" stroke="#000" stroke-width="1.6"/>
<line x1="250.0" y1="79.7" x2="250.0" y2="96.3" stroke="#000" stroke-width="1.6"/>
<rect x="172.0" y="75.0" width="58.5" height="26.0" fill="none" stroke="#000" stroke-width="1.6"/>
<line x1="211.0" y1="75.0" x2="211.0" y2="101.0" stroke="#000" stroke-width="1.6"/>
<circle cx="406.0" cy="88.0" r="3.4" fill="#000"/>
<line x1="94.0" y1="148.0" x2="152.5" y2="148.0" stroke="#000" stroke-width="1.6"/>
<line x1="269.5" y1="148.0" x2="308.5" y2="148.0" stroke="#000" stroke-width="1.6"/>
<line x1="94.0" y1="139.7" x2="94.0" y2="156.3" stroke="#000" stroke-width="1.6"/>
<line x1="308.5" y1="139.7" x2="308.5" y2="156.3" stroke="#000" stroke-width="1.6"/>
<rect x="152.5" y="135.0" width="117.0" height="26.0" fill="none" stroke="#000" stroke-width="1.6"/>
<line x1="211.0" y1="135.0" x2="211.0" y2="161.0" stroke="#000" stroke-width="1.6"/>
<text x="30.0" y="92.0" font-size="13" text-anchor="middle" font-weight="bold">A班</text>
<text x="30.0" y="152.0" font-size="13" text-anchor="middle" font-weight="bold">B班</text>
<text x="240.0" y="26.0" font-size="13" text-anchor="middle" font-weight="bold">A班とB班の箱ひげ図——外れ値は別に●で示す</text>
<text x="240.0" y="50.0" font-size="11" text-anchor="middle">ひげは外れ値を除いた最小値・最大値まで</text>
<circle cx="200.0" cy="231.0" r="3.4" fill="#000"/>
<text x="210.0" y="235.0" font-size="10" text-anchor="start">=外れ値</text>
<text x="240.0" y="254.0" font-size="11" text-anchor="middle">横軸: 利用回数（回）・各班11人（架空の練習用データ）</text>
</svg>
