<svg xmlns="http://www.w3.org/2000/svg" viewBox="0 0 660 290" role="img">
<title>散布図——A 正の相関・B 負の相関・C 相関なしの3パネル</title>
<desc>【この図の意図】同じ大きさの散布図を3枚並べ、点が右上がりに並ぶ（A 正の相関）・右下がりに並ぶ（B 負の相関）・どちらでもない（C 相関なし）の見分けを形で覚える。r の値は図に描かない（本文で計算する）。【主要な数値・設定】A=[(1, 2), (2, 3), (3, 5), (4, 4), (5, 6), (6, 5), (7, 7), (8, 8)]（r≈0.93）／B=[(1, 8), (2, 6), (3, 7), (4, 5), (5, 4), (6, 2), (7, 3), (8, 1)]（r≈-0.95）／C=[(1, 5), (2, 2), (3, 7), (4, 4), (5, 8), (6, 3), (7, 6), (8, 4)]（r≈0.07）／軸0〜9・目盛1刻み。【本文の alt】散布図と相関の向き——A は右上がり（正の相関）・B は右下がり（負の相関）・C はどちらでもない（相関なし）の3パネル。各8点、目盛りは1刻み。【AIに同じ種類の図を描かせるときの説明文】「散布図——A 正の相関・B 負の相関・C 相関なしの3パネル。同じ大きさの散布図を3枚並べ、点が右上がりに並ぶ（A 正の相関）・右下がりに並ぶ（B 負の相関）・どちらでもない（C 相関なし）の見分けを形で覚える。r の値は図に描かない（本文で計算する）。数値・設定: A=[(1, 2), (2, 3), (3, 5), (4, 4), (5, 6), (6, 5), (7, 7), (8, 8)]（r≈0.93）／B=[(1, 8), (2, 6), (3, 7), (4, 5), (5, 4), (6, 2), (7, 3), (8, 1)]（r≈-0.95）／C=[(1, 5), (2, 2), (3, 7), (4, 4), (5, 8), (6, 3), (7, 6), (8, 4)]（r≈0.07）／軸0〜9・目盛1刻み。白黒印刷向けのシンプルな教材図（SVG）としてかいて。」——この説明文を生成AIに渡せば同型の図を描かせられる。数値を変えれば類題用の図も作れる。</desc>
<!-- L04_fig1_scatter_three_types.svg | 散布図——A 正の相関・B 負の相関・C 相関なしの3パネル -->
<!-- generated by assets_provenance/generate_figures.py on 2026-10-04 (docs/SPEC_figures.md準拠・SVG直接編集禁止/スクリプト改修で再生成) -->
<rect x="0" y="0" width="660" height="290" fill="#fff"/>
<line x1="40.0" y1="222.0" x2="197.0" y2="222.0" stroke="#000" stroke-width="1.2"/>
<polygon points="204.0,222.0 197.0,225.2 197.0,218.8" fill="#000"/>
<line x1="40.0" y1="222.0" x2="40.0" y2="65.0" stroke="#000" stroke-width="1.2"/>
<polygon points="40.0,58.0 43.1,65.0 36.9,65.0" fill="#000"/>
<text x="204.0" y="238.0" font-size="11" text-anchor="middle">x</text>
<text x="28.0" y="62.0" font-size="11" text-anchor="middle">y</text>
<line x1="56.7" y1="219.0" x2="56.7" y2="225.0" stroke="#000" stroke-width="0.9"/>
<text x="56.7" y="237.0" font-size="10" text-anchor="middle">1</text>
<line x1="73.3" y1="219.0" x2="73.3" y2="225.0" stroke="#000" stroke-width="0.9"/>
<text x="73.3" y="237.0" font-size="10" text-anchor="middle">2</text>
<line x1="90.0" y1="219.0" x2="90.0" y2="225.0" stroke="#000" stroke-width="0.9"/>
<text x="90.0" y="237.0" font-size="10" text-anchor="middle">3</text>
<line x1="106.7" y1="219.0" x2="106.7" y2="225.0" stroke="#000" stroke-width="0.9"/>
<text x="106.7" y="237.0" font-size="10" text-anchor="middle">4</text>
<line x1="123.3" y1="219.0" x2="123.3" y2="225.0" stroke="#000" stroke-width="0.9"/>
<text x="123.3" y="237.0" font-size="10" text-anchor="middle">5</text>
<line x1="140.0" y1="219.0" x2="140.0" y2="225.0" stroke="#000" stroke-width="0.9"/>
<text x="140.0" y="237.0" font-size="10" text-anchor="middle">6</text>
<line x1="156.7" y1="219.0" x2="156.7" y2="225.0" stroke="#000" stroke-width="0.9"/>
<text x="156.7" y="237.0" font-size="10" text-anchor="middle">7</text>
<line x1="173.3" y1="219.0" x2="173.3" y2="225.0" stroke="#000" stroke-width="0.9"/>
<text x="173.3" y="237.0" font-size="10" text-anchor="middle">8</text>
<line x1="37.0" y1="205.3" x2="43.0" y2="205.3" stroke="#000" stroke-width="0.9"/>
<text x="33.0" y="208.8" font-size="10" text-anchor="end">1</text>
<line x1="37.0" y1="188.7" x2="43.0" y2="188.7" stroke="#000" stroke-width="0.9"/>
<text x="33.0" y="192.2" font-size="10" text-anchor="end">2</text>
<line x1="37.0" y1="172.0" x2="43.0" y2="172.0" stroke="#000" stroke-width="0.9"/>
<text x="33.0" y="175.5" font-size="10" text-anchor="end">3</text>
<line x1="37.0" y1="155.3" x2="43.0" y2="155.3" stroke="#000" stroke-width="0.9"/>
<text x="33.0" y="158.8" font-size="10" text-anchor="end">4</text>
<line x1="37.0" y1="138.7" x2="43.0" y2="138.7" stroke="#000" stroke-width="0.9"/>
<text x="33.0" y="142.2" font-size="10" text-anchor="end">5</text>
<line x1="37.0" y1="122.0" x2="43.0" y2="122.0" stroke="#000" stroke-width="0.9"/>
<text x="33.0" y="125.5" font-size="10" text-anchor="end">6</text>
<line x1="37.0" y1="105.3" x2="43.0" y2="105.3" stroke="#000" stroke-width="0.9"/>
<text x="33.0" y="108.8" font-size="10" text-anchor="end">7</text>
<line x1="37.0" y1="88.7" x2="43.0" y2="88.7" stroke="#000" stroke-width="0.9"/>
<text x="33.0" y="92.2" font-size="10" text-anchor="end">8</text>
<circle cx="56.7" cy="188.7" r="3.0" fill="#000"/>
<circle cx="73.3" cy="172.0" r="3.0" fill="#000"/>
<circle cx="90.0" cy="138.7" r="3.0" fill="#000"/>
<circle cx="106.7" cy="155.3" r="3.0" fill="#000"/>
<circle cx="123.3" cy="122.0" r="3.0" fill="#000"/>
<circle cx="140.0" cy="138.7" r="3.0" fill="#000"/>
<circle cx="156.7" cy="105.3" r="3.0" fill="#000"/>
<circle cx="173.3" cy="88.7" r="3.0" fill="#000"/>
<text x="115.0" y="52.0" font-size="13" text-anchor="middle" font-weight="bold">A 正の相関</text>
<text x="115.0" y="262.0" font-size="11" text-anchor="middle">右上がりに並ぶ</text>
<line x1="250.0" y1="222.0" x2="407.0" y2="222.0" stroke="#000" stroke-width="1.2"/>
<polygon points="414.0,222.0 407.0,225.2 407.0,218.8" fill="#000"/>
<line x1="250.0" y1="222.0" x2="250.0" y2="65.0" stroke="#000" stroke-width="1.2"/>
<polygon points="250.0,58.0 253.2,65.0 246.8,65.0" fill="#000"/>
<text x="414.0" y="238.0" font-size="11" text-anchor="middle">x</text>
<text x="238.0" y="62.0" font-size="11" text-anchor="middle">y</text>
<line x1="266.7" y1="219.0" x2="266.7" y2="225.0" stroke="#000" stroke-width="0.9"/>
<text x="266.7" y="237.0" font-size="10" text-anchor="middle">1</text>
<line x1="283.3" y1="219.0" x2="283.3" y2="225.0" stroke="#000" stroke-width="0.9"/>
<text x="283.3" y="237.0" font-size="10" text-anchor="middle">2</text>
<line x1="300.0" y1="219.0" x2="300.0" y2="225.0" stroke="#000" stroke-width="0.9"/>
<text x="300.0" y="237.0" font-size="10" text-anchor="middle">3</text>
<line x1="316.7" y1="219.0" x2="316.7" y2="225.0" stroke="#000" stroke-width="0.9"/>
<text x="316.7" y="237.0" font-size="10" text-anchor="middle">4</text>
<line x1="333.3" y1="219.0" x2="333.3" y2="225.0" stroke="#000" stroke-width="0.9"/>
<text x="333.3" y="237.0" font-size="10" text-anchor="middle">5</text>
<line x1="350.0" y1="219.0" x2="350.0" y2="225.0" stroke="#000" stroke-width="0.9"/>
<text x="350.0" y="237.0" font-size="10" text-anchor="middle">6</text>
<line x1="366.7" y1="219.0" x2="366.7" y2="225.0" stroke="#000" stroke-width="0.9"/>
<text x="366.7" y="237.0" font-size="10" text-anchor="middle">7</text>
<line x1="383.3" y1="219.0" x2="383.3" y2="225.0" stroke="#000" stroke-width="0.9"/>
<text x="383.3" y="237.0" font-size="10" text-anchor="middle">8</text>
<line x1="247.0" y1="205.3" x2="253.0" y2="205.3" stroke="#000" stroke-width="0.9"/>
<text x="243.0" y="208.8" font-size="10" text-anchor="end">1</text>
<line x1="247.0" y1="188.7" x2="253.0" y2="188.7" stroke="#000" stroke-width="0.9"/>
<text x="243.0" y="192.2" font-size="10" text-anchor="end">2</text>
<line x1="247.0" y1="172.0" x2="253.0" y2="172.0" stroke="#000" stroke-width="0.9"/>
<text x="243.0" y="175.5" font-size="10" text-anchor="end">3</text>
<line x1="247.0" y1="155.3" x2="253.0" y2="155.3" stroke="#000" stroke-width="0.9"/>
<text x="243.0" y="158.8" font-size="10" text-anchor="end">4</text>
<line x1="247.0" y1="138.7" x2="253.0" y2="138.7" stroke="#000" stroke-width="0.9"/>
<text x="243.0" y="142.2" font-size="10" text-anchor="end">5</text>
<line x1="247.0" y1="122.0" x2="253.0" y2="122.0" stroke="#000" stroke-width="0.9"/>
<text x="243.0" y="125.5" font-size="10" text-anchor="end">6</text>
<line x1="247.0" y1="105.3" x2="253.0" y2="105.3" stroke="#000" stroke-width="0.9"/>
<text x="243.0" y="108.8" font-size="10" text-anchor="end">7</text>
<line x1="247.0" y1="88.7" x2="253.0" y2="88.7" stroke="#000" stroke-width="0.9"/>
<text x="243.0" y="92.2" font-size="10" text-anchor="end">8</text>
<circle cx="266.7" cy="88.7" r="3.0" fill="#000"/>
<circle cx="283.3" cy="122.0" r="3.0" fill="#000"/>
<circle cx="300.0" cy="105.3" r="3.0" fill="#000"/>
<circle cx="316.7" cy="138.7" r="3.0" fill="#000"/>
<circle cx="333.3" cy="155.3" r="3.0" fill="#000"/>
<circle cx="350.0" cy="188.7" r="3.0" fill="#000"/>
<circle cx="366.7" cy="172.0" r="3.0" fill="#000"/>
<circle cx="383.3" cy="205.3" r="3.0" fill="#000"/>
<text x="325.0" y="52.0" font-size="13" text-anchor="middle" font-weight="bold">B 負の相関</text>
<text x="325.0" y="262.0" font-size="11" text-anchor="middle">右下がりに並ぶ</text>
<line x1="460.0" y1="222.0" x2="617.0" y2="222.0" stroke="#000" stroke-width="1.2"/>
<polygon points="624.0,222.0 617.0,225.2 617.0,218.8" fill="#000"/>
<line x1="460.0" y1="222.0" x2="460.0" y2="65.0" stroke="#000" stroke-width="1.2"/>
<polygon points="460.0,58.0 463.1,65.0 456.9,65.0" fill="#000"/>
<text x="624.0" y="238.0" font-size="11" text-anchor="middle">x</text>
<text x="448.0" y="62.0" font-size="11" text-anchor="middle">y</text>
<line x1="476.7" y1="219.0" x2="476.7" y2="225.0" stroke="#000" stroke-width="0.9"/>
<text x="476.7" y="237.0" font-size="10" text-anchor="middle">1</text>
<line x1="493.3" y1="219.0" x2="493.3" y2="225.0" stroke="#000" stroke-width="0.9"/>
<text x="493.3" y="237.0" font-size="10" text-anchor="middle">2</text>
<line x1="510.0" y1="219.0" x2="510.0" y2="225.0" stroke="#000" stroke-width="0.9"/>
<text x="510.0" y="237.0" font-size="10" text-anchor="middle">3</text>
<line x1="526.7" y1="219.0" x2="526.7" y2="225.0" stroke="#000" stroke-width="0.9"/>
<text x="526.7" y="237.0" font-size="10" text-anchor="middle">4</text>
<line x1="543.3" y1="219.0" x2="543.3" y2="225.0" stroke="#000" stroke-width="0.9"/>
<text x="543.3" y="237.0" font-size="10" text-anchor="middle">5</text>
<line x1="560.0" y1="219.0" x2="560.0" y2="225.0" stroke="#000" stroke-width="0.9"/>
<text x="560.0" y="237.0" font-size="10" text-anchor="middle">6</text>
<line x1="576.7" y1="219.0" x2="576.7" y2="225.0" stroke="#000" stroke-width="0.9"/>
<text x="576.7" y="237.0" font-size="10" text-anchor="middle">7</text>
<line x1="593.3" y1="219.0" x2="593.3" y2="225.0" stroke="#000" stroke-width="0.9"/>
<text x="593.3" y="237.0" font-size="10" text-anchor="middle">8</text>
<line x1="457.0" y1="205.3" x2="463.0" y2="205.3" stroke="#000" stroke-width="0.9"/>
<text x="453.0" y="208.8" font-size="10" text-anchor="end">1</text>
<line x1="457.0" y1="188.7" x2="463.0" y2="188.7" stroke="#000" stroke-width="0.9"/>
<text x="453.0" y="192.2" font-size="10" text-anchor="end">2</text>
<line x1="457.0" y1="172.0" x2="463.0" y2="172.0" stroke="#000" stroke-width="0.9"/>
<text x="453.0" y="175.5" font-size="10" text-anchor="end">3</text>
<line x1="457.0" y1="155.3" x2="463.0" y2="155.3" stroke="#000" stroke-width="0.9"/>
<text x="453.0" y="158.8" font-size="10" text-anchor="end">4</text>
<line x1="457.0" y1="138.7" x2="463.0" y2="138.7" stroke="#000" stroke-width="0.9"/>
<text x="453.0" y="142.2" font-size="10" text-anchor="end">5</text>
<line x1="457.0" y1="122.0" x2="463.0" y2="122.0" stroke="#000" stroke-width="0.9"/>
<text x="453.0" y="125.5" font-size="10" text-anchor="end">6</text>
<line x1="457.0" y1="105.3" x2="463.0" y2="105.3" stroke="#000" stroke-width="0.9"/>
<text x="453.0" y="108.8" font-size="10" text-anchor="end">7</text>
<line x1="457.0" y1="88.7" x2="463.0" y2="88.7" stroke="#000" stroke-width="0.9"/>
<text x="453.0" y="92.2" font-size="10" text-anchor="end">8</text>
<circle cx="476.7" cy="138.7" r="3.0" fill="#000"/>
<circle cx="493.3" cy="188.7" r="3.0" fill="#000"/>
<circle cx="510.0" cy="105.3" r="3.0" fill="#000"/>
<circle cx="526.7" cy="155.3" r="3.0" fill="#000"/>
<circle cx="543.3" cy="88.7" r="3.0" fill="#000"/>
<circle cx="560.0" cy="172.0" r="3.0" fill="#000"/>
<circle cx="576.7" cy="122.0" r="3.0" fill="#000"/>
<circle cx="593.3" cy="155.3" r="3.0" fill="#000"/>
<text x="535.0" y="52.0" font-size="13" text-anchor="middle" font-weight="bold">C 相関なし</text>
<text x="535.0" y="262.0" font-size="11" text-anchor="middle">どちらでもない</text>
<text x="330.0" y="26.0" font-size="13" text-anchor="middle" font-weight="bold">散布図と相関の向き</text>
<text x="330.0" y="282.0" font-size="10" text-anchor="middle">架空の練習用データ・各8点（目盛りは1刻み）</text>
</svg>
