<svg xmlns="http://www.w3.org/2000/svg" viewBox="0 0 640 420">
<title>「選ぶ→並べる」の対応図——1つの組 {A, B, C} に 3!=6 個の順列が対応</title>
<desc>左に組 {A, B, C} の枠、右に ABC・ACB・BAC・BCA・CAB・CBA の6つの順列を縦に並べ、枠から各順列へ矢印を引く。同型図は組の文字と r を差し替えて生成する（順列は r! 個）</desc>
<!-- L06_fig1_choose_then_arrange.svg | 「選ぶ→並べる」の対応図——1つの組 {A, B, C} に 3!=6 個の順列が対応 -->
<!-- generated by assets_provenance/generate_figures.py on 2026-10-04 (docs/SPEC_figures.md 準拠・SVG直接編集禁止/スクリプト改修で再生成) -->
<rect x="0" y="0" width="640" height="420" fill="#fff"/>
<rect x="60.0" y="175.0" width="170.0" height="50.0" fill="none" stroke="#000" stroke-width="1.6"/>
<text x="145.0" y="206.7" font-size="19" text-anchor="middle" font-weight="bold">{A, B, C}</text>
<text x="145.0" y="42.0" font-size="19" text-anchor="middle" font-weight="bold">組（選び方）</text>
<text x="470.0" y="42.0" font-size="19" text-anchor="middle" font-weight="bold">順列（並べ方）</text>
<text x="470.0" y="76.7" font-size="19" text-anchor="middle">ABC</text>
<line x1="236.0" y1="200.0" x2="424.2" y2="73.9" stroke="#000" stroke-width="1.4"/>
<polygon points="430.0,70.0 425.9,76.5 422.4,71.3" fill="#000" stroke="none"/>
<text x="470.0" y="132.7" font-size="19" text-anchor="middle">ACB</text>
<line x1="236.0" y1="200.0" x2="423.5" y2="128.5" stroke="#000" stroke-width="1.4"/>
<polygon points="430.0,126.0 424.6,131.4 422.3,125.6" fill="#000" stroke="none"/>
<text x="470.0" y="188.7" font-size="19" text-anchor="middle">BAC</text>
<line x1="236.0" y1="200.0" x2="423.0" y2="182.6" stroke="#000" stroke-width="1.4"/>
<polygon points="430.0,182.0 423.3,185.8 422.7,179.5" fill="#000" stroke="none"/>
<text x="470.0" y="244.7" font-size="19" text-anchor="middle">BCA</text>
<line x1="236.0" y1="200.0" x2="423.1" y2="236.7" stroke="#000" stroke-width="1.4"/>
<polygon points="430.0,238.0 422.5,239.7 423.7,233.6" fill="#000" stroke="none"/>
<text x="470.0" y="300.6" font-size="19" text-anchor="middle">CAB</text>
<line x1="236.0" y1="200.0" x2="423.7" y2="290.9" stroke="#000" stroke-width="1.4"/>
<polygon points="430.0,294.0 422.3,293.8 425.1,288.1" fill="#000" stroke="none"/>
<text x="470.0" y="356.6" font-size="19" text-anchor="middle">CBA</text>
<line x1="236.0" y1="200.0" x2="424.5" y2="345.7" stroke="#000" stroke-width="1.4"/>
<polygon points="430.0,350.0 422.5,348.2 426.4,343.2" fill="#000" stroke="none"/>
<text x="320.0" y="400.0" font-size="19" text-anchor="middle">1つの組に 3!=6 個の順列が対応</text>
</svg>
