<svg xmlns="http://www.w3.org/2000/svg" viewBox="0 0 640 300">
<title>線分 AB の内分点 P（2:1）・外分点 Q（2:1・B の側）・外分点 R（1:2・A の側）の3状態</title>
<desc>同じ線分 AB を3段に描き、上段に 2:1 の内分点 P、中段に 2:1 の外分点 Q（B を越えた側）、下段に 1:2 の外分点 R（A の手前側）を置く。各段の下に A→分点・分点→B の2区間を両矢印で示す。長さの数値は書かない。同型図は m:n と A, B の座標を差し替えて生成する</desc>
<!-- L01_fig1_internal_external_division.svg | 線分 AB の内分点 P（2:1）・外分点 Q（2:1・B の側）・外分点 R（1:2・A の側）の3状態 -->
<!-- generated by assets_provenance/generate_figures.py on 2026-10-04 (docs/SPEC_figures.md 準拠・SVG直接編集禁止/スクリプト改修で再生成) -->
<rect x="0" y="0" width="640" height="300" fill="#fff"/>
<line x1="185.6" y1="70.0" x2="358.4" y2="70.0" stroke="#000" stroke-width="1.1" stroke-dasharray="6 4"/>
<line x1="200.0" y1="70.0" x2="344.0" y2="70.0" stroke="#000" stroke-width="3.2"/>
<circle cx="200.0" cy="70.0" r="2.5" fill="#000"/>
<text x="200.0" y="60.6" font-size="19" text-anchor="middle" font-weight="bold">A</text>
<circle cx="344.0" cy="70.0" r="2.5" fill="#000"/>
<text x="344.0" y="60.6" font-size="19" text-anchor="middle" font-weight="bold">B</text>
<circle cx="296.0" cy="70.0" r="2.5" fill="#000"/>
<text x="296.0" y="60.6" font-size="19" text-anchor="middle" font-weight="bold">P</text>
<line x1="200.0" y1="88.0" x2="290.0" y2="88.0" stroke="#000" stroke-width="1.1"/>
<polygon points="296.0,88.0 290.0,90.7 290.0,85.3" fill="#000" stroke="none"/>
<line x1="296.0" y1="88.0" x2="206.0" y2="88.0" stroke="#000" stroke-width="1.1"/>
<polygon points="200.0,88.0 206.0,85.3 206.0,90.7" fill="#000" stroke="none"/>
<line x1="296.0" y1="88.0" x2="338.0" y2="88.0" stroke="#000" stroke-width="1.1"/>
<polygon points="344.0,88.0 338.0,90.7 338.0,85.3" fill="#000" stroke="none"/>
<line x1="344.0" y1="88.0" x2="302.0" y2="88.0" stroke="#000" stroke-width="1.1"/>
<polygon points="296.0,88.0 302.0,85.3 302.0,90.7" fill="#000" stroke="none"/>
<text x="530.0" y="76.7" font-size="19" text-anchor="start">2:1に内分</text>
<line x1="185.6" y1="150.0" x2="502.4" y2="150.0" stroke="#000" stroke-width="1.1" stroke-dasharray="6 4"/>
<line x1="200.0" y1="150.0" x2="344.0" y2="150.0" stroke="#000" stroke-width="3.2"/>
<circle cx="200.0" cy="150.0" r="2.5" fill="#000"/>
<text x="200.0" y="140.7" font-size="19" text-anchor="middle" font-weight="bold">A</text>
<circle cx="344.0" cy="150.0" r="2.5" fill="#000"/>
<text x="344.0" y="140.7" font-size="19" text-anchor="middle" font-weight="bold">B</text>
<circle cx="488.0" cy="150.0" r="2.5" fill="#000"/>
<text x="488.0" y="140.7" font-size="19" text-anchor="middle" font-weight="bold">Q</text>
<line x1="200.0" y1="168.0" x2="482.0" y2="168.0" stroke="#000" stroke-width="1.1"/>
<polygon points="488.0,168.0 482.0,170.7 482.0,165.3" fill="#000" stroke="none"/>
<line x1="488.0" y1="168.0" x2="206.0" y2="168.0" stroke="#000" stroke-width="1.1"/>
<polygon points="200.0,168.0 206.0,165.3 206.0,170.7" fill="#000" stroke="none"/>
<line x1="488.0" y1="168.0" x2="350.0" y2="168.0" stroke="#000" stroke-width="1.1"/>
<polygon points="344.0,168.0 350.0,165.3 350.0,170.7" fill="#000" stroke="none"/>
<line x1="344.0" y1="168.0" x2="482.0" y2="168.0" stroke="#000" stroke-width="1.1"/>
<polygon points="488.0,168.0 482.0,170.7 482.0,165.3" fill="#000" stroke="none"/>
<text x="530.0" y="156.7" font-size="19" text-anchor="start">2:1に外分</text>
<line x1="41.6" y1="230.0" x2="358.4" y2="230.0" stroke="#000" stroke-width="1.1" stroke-dasharray="6 4"/>
<line x1="200.0" y1="230.0" x2="344.0" y2="230.0" stroke="#000" stroke-width="3.2"/>
<circle cx="200.0" cy="230.0" r="2.5" fill="#000"/>
<text x="200.0" y="220.7" font-size="19" text-anchor="middle" font-weight="bold">A</text>
<circle cx="344.0" cy="230.0" r="2.5" fill="#000"/>
<text x="344.0" y="220.7" font-size="19" text-anchor="middle" font-weight="bold">B</text>
<circle cx="56.0" cy="230.0" r="2.5" fill="#000"/>
<text x="56.0" y="220.7" font-size="19" text-anchor="middle" font-weight="bold">R</text>
<line x1="200.0" y1="248.0" x2="62.0" y2="248.0" stroke="#000" stroke-width="1.1"/>
<polygon points="56.0,248.0 62.0,245.3 62.0,250.7" fill="#000" stroke="none"/>
<line x1="56.0" y1="248.0" x2="194.0" y2="248.0" stroke="#000" stroke-width="1.1"/>
<polygon points="200.0,248.0 194.0,250.7 194.0,245.3" fill="#000" stroke="none"/>
<line x1="56.0" y1="248.0" x2="338.0" y2="248.0" stroke="#000" stroke-width="1.1"/>
<polygon points="344.0,248.0 338.0,250.7 338.0,245.3" fill="#000" stroke="none"/>
<line x1="344.0" y1="248.0" x2="62.0" y2="248.0" stroke="#000" stroke-width="1.1"/>
<polygon points="56.0,248.0 62.0,245.3 62.0,250.7" fill="#000" stroke="none"/>
<text x="530.0" y="236.7" font-size="19" text-anchor="start">1:2に外分</text>
</svg>
