<svg xmlns="http://www.w3.org/2000/svg" viewBox="0 0 640 400">
<title>内分点・外分点の作図——A を通る直線 ℓ と B を通る平行線 k に、AC=（単位）×m・BD=（単位）×n をとり、直線 CD・CD′ と AB の交点 P・Q</title>
<desc>線分 AB（太線）に対し、A を通る直線 ℓ（38°）と B を通り ℓ に平行な直線 k を引く。ℓ 上に AC（単位の 2 倍）、k 上に BD（単位の 1 倍・AB について C と反対側）と BD′（同じ側）をとる。直線 CD と AB の交点 P が 2:1 の内分点、直線 CD′ と AB の交点 Q が 2:1 の外分点（B の側）。数値は書かない。同型図は比 m:n と ℓ の向きを差し替えて生成する</desc>
<!-- L10_fig1_construct_division.svg | 内分点・外分点の作図——A を通る直線 ℓ と B を通る平行線 k に、AC=（単位）×m・BD=（単位）×n をとり、直線 CD・CD′ と AB の交点 P・Q -->
<!-- generated by assets_provenance/generate_figures.py on 2026-10-04 (docs/SPEC_figures.md 準拠・SVG直接編集禁止/スクリプト改修で再生成) -->
<rect x="0" y="0" width="640" height="400" fill="#fff"/>
<line x1="53.0" y1="233.3" x2="172.1" y2="140.2" stroke="#000" stroke-width="1.1"/>
<line x1="223.6" y1="268.8" x2="348.4" y2="171.2" stroke="#000" stroke-width="1.1"/>
<line x1="52.0" y1="220.0" x2="523.6" y2="220.0" stroke="#000" stroke-width="1.1" stroke-dasharray="6 4"/>
<line x1="70.0" y1="220.0" x2="286.0" y2="220.0" stroke="#000" stroke-width="3.2"/>
<line x1="143.8" y1="162.4" x2="249.1" y2="248.8" stroke="#000" stroke-width="1.6"/>
<line x1="143.8" y1="162.4" x2="502.0" y2="220.0" stroke="#000" stroke-width="1.6"/>
<polyline points="105.8,199.6 106.9,191.2 98.5,190.2" fill="none" stroke="#000" stroke-width="1.2" stroke-linejoin="round"/>
<polyline points="307.1,211.1 308.1,202.7 299.7,201.7" fill="none" stroke="#000" stroke-width="1.2" stroke-linejoin="round"/>
<circle cx="70.0" cy="220.0" r="2.5" fill="#000"/>
<circle cx="286.0" cy="220.0" r="2.5" fill="#000"/>
<circle cx="143.8" cy="162.4" r="2.5" fill="#000"/>
<circle cx="249.1" cy="248.8" r="2.5" fill="#000"/>
<circle cx="322.9" cy="191.2" r="2.5" fill="#000"/>
<circle cx="214.0" cy="220.0" r="2.5" fill="#000"/>
<circle cx="502.0" cy="220.0" r="2.5" fill="#000"/>
<text x="64.2" y="242.6" font-size="19" text-anchor="middle" font-weight="bold">A</text>
<text x="294.5" y="241.4" font-size="19" text-anchor="middle" font-weight="bold">B</text>
<text x="129.0" y="160.5" font-size="19" text-anchor="middle" font-weight="bold">C</text>
<text x="266.1" y="255.5" font-size="19" text-anchor="middle" font-weight="bold">D</text>
<text x="339.9" y="197.8" font-size="19" text-anchor="middle" font-weight="bold">D′</text>
<text x="214.0" y="243.7" font-size="19" text-anchor="middle" font-weight="bold">P</text>
<text x="502.0" y="243.7" font-size="19" text-anchor="middle" font-weight="bold">Q</text>
<text x="172.1" y="132.9" font-size="19" text-anchor="middle">ℓ</text>
<text x="348.4" y="163.9" font-size="19" text-anchor="middle">k</text>
</svg>
