<svg xmlns="http://www.w3.org/2000/svg" viewBox="0 0 960 280">
<title>正多面体5種の見取図——正四面体・正六面体・正八面体・正十二面体・正二十面体（斜投影・隠れた辺は破線）</title>
<desc>5つの正多面体を頂点座標（正四面体は L12 と同じ・立方体は (±1,±1,±1)・正八面体は軸上の6点・正十二面体と正二十面体は黄金比の座標）から描く。面は頂点座標からの支持平面探索で求め、頂点・辺・面の数と v−e＋f=2、面の形、1頂点に集まる面の数を検算する。個数の数値は書かない。同型図は回転角と倍率を差し替えて生成する</desc>
<!-- L13_fig1_platonic_solids.svg | 正多面体5種の見取図——正四面体・正六面体・正八面体・正十二面体・正二十面体（斜投影・隠れた辺は破線） -->
<!-- generated by assets_provenance/generate_figures.py on 2026-10-04 (docs/SPEC_figures.md 準拠・SVG直接編集禁止/スクリプト改修で再生成) -->
<rect x="0" y="0" width="960" height="280" fill="#fff"/>
<line x1="103.1" y1="77.5" x2="36.0" y2="170.7" stroke="#000" stroke-width="1.6"/>
<line x1="103.1" y1="77.5" x2="117.3" y2="182.5" stroke="#000" stroke-width="1.6"/>
<line x1="103.1" y1="77.5" x2="156.0" y2="154.5" stroke="#000" stroke-width="1.6"/>
<line x1="36.0" y1="170.7" x2="117.3" y2="182.5" stroke="#000" stroke-width="1.6"/>
<line x1="36.0" y1="170.7" x2="156.0" y2="154.5" stroke="#000" stroke-width="1.1" stroke-dasharray="6 4"/>
<line x1="117.3" y1="182.5" x2="156.0" y2="154.5" stroke="#000" stroke-width="1.6"/>
<text x="96.0" y="255.0" font-size="16" text-anchor="middle">正四面体</text>
<line x1="228.0" y1="174.8" x2="228.0" y2="96.9" stroke="#000" stroke-width="1.6"/>
<line x1="228.0" y1="174.8" x2="286.3" y2="156.5" stroke="#000" stroke-width="1.1" stroke-dasharray="6 4"/>
<line x1="228.0" y1="174.8" x2="289.7" y2="181.4" stroke="#000" stroke-width="1.6"/>
<line x1="228.0" y1="96.9" x2="286.3" y2="78.6" stroke="#000" stroke-width="1.6"/>
<line x1="228.0" y1="96.9" x2="289.7" y2="103.5" stroke="#000" stroke-width="1.6"/>
<line x1="286.3" y1="156.5" x2="286.3" y2="78.6" stroke="#000" stroke-width="1.1" stroke-dasharray="6 4"/>
<line x1="286.3" y1="156.5" x2="348.0" y2="163.1" stroke="#000" stroke-width="1.1" stroke-dasharray="6 4"/>
<line x1="286.3" y1="78.6" x2="348.0" y2="85.2" stroke="#000" stroke-width="1.6"/>
<line x1="289.7" y1="181.4" x2="289.7" y2="103.5" stroke="#000" stroke-width="1.6"/>
<line x1="289.7" y1="181.4" x2="348.0" y2="163.1" stroke="#000" stroke-width="1.6"/>
<line x1="289.7" y1="103.5" x2="348.0" y2="85.2" stroke="#000" stroke-width="1.6"/>
<line x1="348.0" y1="163.1" x2="348.0" y2="85.2" stroke="#000" stroke-width="1.6"/>
<text x="288.0" y="255.0" font-size="16" text-anchor="middle">正六面体</text>
<line x1="527.5" y1="135.1" x2="524.9" y2="115.9" stroke="#000" stroke-width="1.6"/>
<line x1="527.5" y1="135.1" x2="435.1" y2="144.1" stroke="#000" stroke-width="1.6"/>
<line x1="527.5" y1="135.1" x2="480.0" y2="70.0" stroke="#000" stroke-width="1.6"/>
<line x1="527.5" y1="135.1" x2="480.0" y2="190.0" stroke="#000" stroke-width="1.6"/>
<line x1="432.5" y1="124.9" x2="524.9" y2="115.9" stroke="#000" stroke-width="1.1" stroke-dasharray="6 4"/>
<line x1="432.5" y1="124.9" x2="435.1" y2="144.1" stroke="#000" stroke-width="1.6"/>
<line x1="432.5" y1="124.9" x2="480.0" y2="70.0" stroke="#000" stroke-width="1.6"/>
<line x1="432.5" y1="124.9" x2="480.0" y2="190.0" stroke="#000" stroke-width="1.1" stroke-dasharray="6 4"/>
<line x1="524.9" y1="115.9" x2="480.0" y2="70.0" stroke="#000" stroke-width="1.6"/>
<line x1="524.9" y1="115.9" x2="480.0" y2="190.0" stroke="#000" stroke-width="1.1" stroke-dasharray="6 4"/>
<line x1="435.1" y1="144.1" x2="480.0" y2="70.0" stroke="#000" stroke-width="1.6"/>
<line x1="435.1" y1="144.1" x2="480.0" y2="190.0" stroke="#000" stroke-width="1.6"/>
<text x="480.0" y="255.0" font-size="16" text-anchor="middle">正八面体</text>
<line x1="628.5" y1="174.0" x2="667.5" y2="190.0" stroke="#000" stroke-width="1.6"/>
<line x1="628.5" y1="174.0" x2="637.8" y2="144.5" stroke="#000" stroke-width="1.6"/>
<line x1="628.5" y1="174.0" x2="613.4" y2="153.8" stroke="#000" stroke-width="1.6"/>
<line x1="628.5" y1="106.1" x2="637.8" y2="144.5" stroke="#000" stroke-width="1.6"/>
<line x1="628.5" y1="106.1" x2="667.5" y2="80.3" stroke="#000" stroke-width="1.6"/>
<line x1="628.5" y1="106.1" x2="613.4" y2="111.9" stroke="#000" stroke-width="1.6"/>
<line x1="643.1" y1="157.4" x2="613.4" y2="153.8" stroke="#000" stroke-width="1.1" stroke-dasharray="6 4"/>
<line x1="643.1" y1="157.4" x2="661.4" y2="117.7" stroke="#000" stroke-width="1.1" stroke-dasharray="6 4"/>
<line x1="643.1" y1="157.4" x2="676.5" y2="179.7" stroke="#000" stroke-width="1.1" stroke-dasharray="6 4"/>
<line x1="643.1" y1="89.6" x2="661.4" y2="117.7" stroke="#000" stroke-width="1.1" stroke-dasharray="6 4"/>
<line x1="643.1" y1="89.6" x2="613.4" y2="111.9" stroke="#000" stroke-width="1.6"/>
<line x1="643.1" y1="89.6" x2="676.5" y2="70.0" stroke="#000" stroke-width="1.6"/>
<line x1="700.9" y1="170.4" x2="667.5" y2="190.0" stroke="#000" stroke-width="1.6"/>
<line x1="700.9" y1="170.4" x2="730.6" y2="148.1" stroke="#000" stroke-width="1.6"/>
<line x1="700.9" y1="170.4" x2="682.6" y2="142.3" stroke="#000" stroke-width="1.6"/>
<line x1="700.9" y1="102.6" x2="667.5" y2="80.3" stroke="#000" stroke-width="1.6"/>
<line x1="700.9" y1="102.6" x2="682.6" y2="142.3" stroke="#000" stroke-width="1.6"/>
<line x1="700.9" y1="102.6" x2="730.6" y2="106.2" stroke="#000" stroke-width="1.6"/>
<line x1="715.5" y1="153.9" x2="730.6" y2="148.1" stroke="#000" stroke-width="1.1" stroke-dasharray="6 4"/>
<line x1="715.5" y1="153.9" x2="676.5" y2="179.7" stroke="#000" stroke-width="1.1" stroke-dasharray="6 4"/>
<line x1="715.5" y1="153.9" x2="706.2" y2="115.5" stroke="#000" stroke-width="1.1" stroke-dasharray="6 4"/>
<line x1="715.5" y1="86.0" x2="676.5" y2="70.0" stroke="#000" stroke-width="1.6"/>
<line x1="715.5" y1="86.0" x2="706.2" y2="115.5" stroke="#000" stroke-width="1.1" stroke-dasharray="6 4"/>
<line x1="715.5" y1="86.0" x2="730.6" y2="106.2" stroke="#000" stroke-width="1.6"/>
<line x1="667.5" y1="190.0" x2="676.5" y2="179.7" stroke="#000" stroke-width="1.1" stroke-dasharray="6 4"/>
<line x1="637.8" y1="144.5" x2="682.6" y2="142.3" stroke="#000" stroke-width="1.6"/>
<line x1="613.4" y1="153.8" x2="613.4" y2="111.9" stroke="#000" stroke-width="1.6"/>
<line x1="667.5" y1="80.3" x2="676.5" y2="70.0" stroke="#000" stroke-width="1.6"/>
<line x1="661.4" y1="117.7" x2="706.2" y2="115.5" stroke="#000" stroke-width="1.1" stroke-dasharray="6 4"/>
<line x1="730.6" y1="148.1" x2="730.6" y2="106.2" stroke="#000" stroke-width="1.6"/>
<text x="672.0" y="255.0" font-size="16" text-anchor="middle">正十二面体</text>
<line x1="857.1" y1="190.0" x2="818.4" y2="144.4" stroke="#000" stroke-width="1.6"/>
<line x1="857.1" y1="190.0" x2="808.3" y2="164.9" stroke="#000" stroke-width="1.6"/>
<line x1="857.1" y1="190.0" x2="919.7" y2="159.5" stroke="#000" stroke-width="1.6"/>
<line x1="857.1" y1="190.0" x2="870.9" y2="174.2" stroke="#000" stroke-width="1.1" stroke-dasharray="6 4"/>
<line x1="857.1" y1="190.0" x2="887.2" y2="141.1" stroke="#000" stroke-width="1.6"/>
<line x1="818.4" y1="144.4" x2="808.3" y2="164.9" stroke="#000" stroke-width="1.6"/>
<line x1="818.4" y1="144.4" x2="857.1" y2="85.8" stroke="#000" stroke-width="1.6"/>
<line x1="818.4" y1="144.4" x2="887.2" y2="141.1" stroke="#000" stroke-width="1.6"/>
<line x1="818.4" y1="144.4" x2="808.3" y2="100.5" stroke="#000" stroke-width="1.6"/>
<line x1="808.3" y1="164.9" x2="840.8" y2="118.9" stroke="#000" stroke-width="1.1" stroke-dasharray="6 4"/>
<line x1="808.3" y1="164.9" x2="870.9" y2="174.2" stroke="#000" stroke-width="1.1" stroke-dasharray="6 4"/>
<line x1="808.3" y1="164.9" x2="808.3" y2="100.5" stroke="#000" stroke-width="1.6"/>
<line x1="857.1" y1="85.8" x2="887.2" y2="141.1" stroke="#000" stroke-width="1.6"/>
<line x1="857.1" y1="85.8" x2="808.3" y2="100.5" stroke="#000" stroke-width="1.6"/>
<line x1="857.1" y1="85.8" x2="870.9" y2="70.0" stroke="#000" stroke-width="1.6"/>
<line x1="857.1" y1="85.8" x2="919.7" y2="95.1" stroke="#000" stroke-width="1.6"/>
<line x1="840.8" y1="118.9" x2="870.9" y2="174.2" stroke="#000" stroke-width="1.1" stroke-dasharray="6 4"/>
<line x1="840.8" y1="118.9" x2="808.3" y2="100.5" stroke="#000" stroke-width="1.1" stroke-dasharray="6 4"/>
<line x1="840.8" y1="118.9" x2="870.9" y2="70.0" stroke="#000" stroke-width="1.1" stroke-dasharray="6 4"/>
<line x1="840.8" y1="118.9" x2="909.6" y2="115.6" stroke="#000" stroke-width="1.1" stroke-dasharray="6 4"/>
<line x1="919.7" y1="159.5" x2="870.9" y2="174.2" stroke="#000" stroke-width="1.1" stroke-dasharray="6 4"/>
<line x1="919.7" y1="159.5" x2="887.2" y2="141.1" stroke="#000" stroke-width="1.6"/>
<line x1="919.7" y1="159.5" x2="909.6" y2="115.6" stroke="#000" stroke-width="1.1" stroke-dasharray="6 4"/>
<line x1="919.7" y1="159.5" x2="919.7" y2="95.1" stroke="#000" stroke-width="1.6"/>
<line x1="870.9" y1="174.2" x2="909.6" y2="115.6" stroke="#000" stroke-width="1.1" stroke-dasharray="6 4"/>
<line x1="887.2" y1="141.1" x2="919.7" y2="95.1" stroke="#000" stroke-width="1.6"/>
<line x1="808.3" y1="100.5" x2="870.9" y2="70.0" stroke="#000" stroke-width="1.6"/>
<line x1="870.9" y1="70.0" x2="909.6" y2="115.6" stroke="#000" stroke-width="1.1" stroke-dasharray="6 4"/>
<line x1="870.9" y1="70.0" x2="919.7" y2="95.1" stroke="#000" stroke-width="1.6"/>
<line x1="909.6" y1="115.6" x2="919.7" y2="95.1" stroke="#000" stroke-width="1.1" stroke-dasharray="6 4"/>
<text x="864.0" y="255.0" font-size="16" text-anchor="middle">正二十面体</text>
</svg>
