<svg xmlns="http://www.w3.org/2000/svg" viewBox="0 0 620 560">
<title>背理法の流れ図</title>
<desc>縦5段の流れ図。2段目（否定を仮定）と5段目（仮定は誤り・命題は正しい）を強調。同型図をAIに描かせる指示: 「縦に5つの箱を等間隔に並べ、下向き矢印でつなぐ。2段目と5段目を太い枠にする」。</desc>
<!-- L07_fig1_proof_by_contradiction_flow.svg | 背理法の流れ図 -->
<!-- generated by assets_provenance/generate_figures.py on 2026-09-02 (docs/SPEC_figures.md・標準形§12準拠・SVG直接編集禁止/スクリプト改修で再生成) -->
<rect x="0" y="0" width="620" height="560" fill="#fff"/>
<rect x="60.0" y="24.0" width="400.0" height="64.0" fill="none" stroke="#000" stroke-width="1.5" rx="8"/>
<text x="260.0" y="62.0" font-size="17" text-anchor="middle">証明したい命題</text>
<rect x="60.0" y="124.0" width="400.0" height="64.0" fill="none" stroke="#000" stroke-width="3.2" rx="8"/>
<text x="260.0" y="162.0" font-size="17" text-anchor="middle" font-weight="bold">その否定を仮定する</text>
<text x="470.0" y="160.0" font-size="12" text-anchor="start">否定するのは結論</text>
<rect x="60.0" y="224.0" width="400.0" height="64.0" fill="none" stroke="#000" stroke-width="1.5" rx="8"/>
<text x="260.0" y="262.0" font-size="17" text-anchor="middle">正しい推論を積み重ねる</text>
<rect x="60.0" y="324.0" width="400.0" height="64.0" fill="none" stroke="#000" stroke-width="1.5" rx="8"/>
<text x="260.0" y="362.0" font-size="17" text-anchor="middle">矛盾が出る</text>
<text x="470.0" y="360.0" font-size="12" text-anchor="start">何と食い違ったかを言う</text>
<rect x="60.0" y="424.0" width="400.0" height="64.0" fill="none" stroke="#000" stroke-width="3.2" rx="8"/>
<text x="260.0" y="462.0" font-size="17" text-anchor="middle" font-weight="bold">仮定は誤り。よって命題は正しい</text>
<line x1="260.0" y1="88.0" x2="260.0" y2="116.0" stroke="#000" stroke-width="1.5"/>
<polygon points="260.0,124.0 256.4,116.0 263.6,116.0" fill="#000"/>
<line x1="260.0" y1="188.0" x2="260.0" y2="216.0" stroke="#000" stroke-width="1.5"/>
<polygon points="260.0,224.0 256.4,216.0 263.6,216.0" fill="#000"/>
<line x1="260.0" y1="288.0" x2="260.0" y2="316.0" stroke="#000" stroke-width="1.5"/>
<polygon points="260.0,324.0 256.4,316.0 263.6,316.0" fill="#000"/>
<line x1="260.0" y1="388.0" x2="260.0" y2="416.0" stroke="#000" stroke-width="1.5"/>
<polygon points="260.0,424.0 256.4,416.0 263.6,416.0" fill="#000"/>
</svg>
